<?xml version="1.0" encoding="UTF-8"?>
<svg id="Layer_2" data-name="Layer 2" xmlns="http://www.w3.org/2000/svg" viewBox="0 0 1000 1000">
  <defs>
    <style>
      .cls-1 {
        fill: #fff;
      }

      .cls-2 {
        fill: #4377cc;
      }

      .cls-3 {
        fill: none;
        stroke: #fff;
        stroke-miterlimit: 10;
        stroke-width: 35px;
      }
    </style>
  </defs>
  <g id="favicon">
    <rect id="bg1" class="cls-2" width="1000" height="1000"/>
    <g id="logo1">
      <path id="b" class="cls-1" d="m564.39,440.39c10.4,13.04,15.61,28.16,15.61,45.36,0,25.25-8.39,44.94-25.18,59.09-16.79,14.15-40.85,21.22-72.2,21.22h-136.91v-294.21h133.58c29.96,0,53.12,6.52,69.49,19.56,16.37,13.04,24.55,31.63,24.55,55.76,0,17.76-4.72,32.53-14.15,44.32-9.43,11.79-21.78,19.49-37.04,23.1,17.75,4.16,31.84,12.76,42.24,25.8Zm-147.52-48.27h46.61c24.69,0,37.04-10.54,37.04-31.63s-12.63-31.63-37.87-31.63h-45.78v63.25Zm90.3,83.64c0-10.54-3.47-18.79-10.4-24.76-6.94-5.96-16.79-8.95-29.55-8.95h-50.35v66.17h50.77c26.35,0,39.53-10.82,39.53-32.46Z"/>
      <rect id="rec_sm" class="cls-3" x="258.17" y="196" width="483.65" height="483.65" rx="75" ry="75"/>
      <rect id="rec_lg" class="cls-3" x="196" y="196" width="608" height="608" rx="100" ry="100"/>
    </g>
  </g>
</svg>